<svg width="9" height="17" viewBox="0 0 9 17" fill="none" xmlns="http://www.w3.org/2000/svg">
<path d="M2.772 8.26C2.988 7.796 3.288 7.444 3.672 7.204C4.056 6.964 4.46 6.844 4.884 6.844C5.26 6.844 5.58 6.948 5.844 7.156C6.108 7.364 6.24 7.672 6.24 8.08C6.24 8.256 6.224 8.412 6.192 8.548C6.16 8.684 6.072 8.784 5.928 8.848L4.8 9.304C4.752 9.32 4.716 9.328 4.692 9.328C4.62 9.328 4.584 9.292 4.584 9.22C4.584 9.196 4.592 9.16 4.608 9.112C4.656 9 4.684 8.892 4.692 8.788C4.708 8.684 4.716 8.592 4.716 8.512C4.716 8.296 4.66 8.14 4.548 8.044C4.444 7.94 4.312 7.888 4.152 7.888C3.968 7.888 3.796 7.944 3.636 8.056C3.476 8.168 3.336 8.304 3.216 8.464C3.096 8.624 3.008 8.78 2.952 8.932V11.14C2.952 11.46 3.024 11.732 3.168 11.956C3.312 12.172 3.532 12.28 3.828 12.28H3.852C3.972 12.28 4.032 12.34 4.032 12.46V12.82C4.032 12.94 3.972 13 3.852 13H0.36C0.24 13 0.18 12.94 0.18 12.82V12.46C0.18 12.34 0.24 12.28 0.36 12.28H0.384C0.68 12.28 0.9 12.172 1.044 11.956C1.188 11.732 1.26 11.46 1.26 11.14V9.628C1.26 9.412 1.244 9.204 1.212 9.004C1.188 8.804 1.128 8.636 1.032 8.5C0.936 8.356 0.776 8.272 0.552 8.248C0.456 8.24 0.408 8.188 0.408 8.092V7.684C0.408 7.604 0.468 7.552 0.588 7.528C1.156 7.44 1.652 7.3 2.076 7.108C2.508 6.916 2.8 6.764 2.952 6.652C2.976 6.636 2.996 6.628 3.012 6.628H3.036C3.052 6.628 3.06 6.636 3.06 6.652C3.06 6.66 3.048 6.72 3.024 6.832C3.008 6.944 2.984 7.088 2.952 7.264C2.928 7.432 2.896 7.608 2.856 7.792C2.824 7.968 2.796 8.124 2.772 8.26Z" fill="black"/>
<line x1="8.5" y1="3" x2="8.5" y2="16" stroke="black"/>
</svg>
