<svg width="45" height="17" viewBox="0 0 45 17" fill="none" xmlns="http://www.w3.org/2000/svg">
<path d="M2.772 8.26C2.988 7.796 3.288 7.444 3.672 7.204C4.056 6.964 4.46 6.844 4.884 6.844C5.26 6.844 5.58 6.948 5.844 7.156C6.108 7.364 6.24 7.672 6.24 8.08C6.24 8.256 6.224 8.412 6.192 8.548C6.16 8.684 6.072 8.784 5.928 8.848L4.8 9.304C4.752 9.32 4.716 9.328 4.692 9.328C4.62 9.328 4.584 9.292 4.584 9.22C4.584 9.196 4.592 9.16 4.608 9.112C4.656 9 4.684 8.892 4.692 8.788C4.708 8.684 4.716 8.592 4.716 8.512C4.716 8.296 4.66 8.14 4.548 8.044C4.444 7.94 4.312 7.888 4.152 7.888C3.968 7.888 3.796 7.944 3.636 8.056C3.476 8.168 3.336 8.304 3.216 8.464C3.096 8.624 3.008 8.78 2.952 8.932V11.14C2.952 11.46 3.024 11.732 3.168 11.956C3.312 12.172 3.532 12.28 3.828 12.28H3.852C3.972 12.28 4.032 12.34 4.032 12.46V12.82C4.032 12.94 3.972 13 3.852 13H0.36C0.24 13 0.18 12.94 0.18 12.82V12.46C0.18 12.34 0.24 12.28 0.36 12.28H0.384C0.68 12.28 0.9 12.172 1.044 11.956C1.188 11.732 1.26 11.46 1.26 11.14V9.628C1.26 9.412 1.244 9.204 1.212 9.004C1.188 8.804 1.128 8.636 1.032 8.5C0.936 8.356 0.776 8.272 0.552 8.248C0.456 8.24 0.408 8.188 0.408 8.092V7.684C0.408 7.604 0.468 7.552 0.588 7.528C1.156 7.44 1.652 7.3 2.076 7.108C2.508 6.916 2.8 6.764 2.952 6.652C2.976 6.636 2.996 6.628 3.012 6.628H3.036C3.052 6.628 3.06 6.636 3.06 6.652C3.06 6.66 3.048 6.72 3.024 6.832C3.008 6.944 2.984 7.088 2.952 7.264C2.928 7.432 2.896 7.608 2.856 7.792C2.824 7.968 2.796 8.124 2.772 8.26ZM8.2875 10.852C8.4235 11.188 8.6395 11.488 8.9355 11.752C9.2395 12.016 9.6235 12.148 10.0875 12.148C10.3435 12.148 10.6115 12.076 10.8915 11.932C11.1715 11.788 11.4155 11.564 11.6235 11.26C11.6475 11.22 11.6795 11.2 11.7195 11.2C11.7595 11.2 11.7995 11.212 11.8395 11.236C11.8875 11.26 12.0075 11.328 12.1995 11.44C12.2315 11.464 12.2475 11.496 12.2475 11.536C12.2475 11.592 12.2235 11.66 12.1755 11.74C11.9515 12.156 11.6475 12.496 11.2635 12.76C10.8795 13.024 10.3795 13.156 9.7635 13.156C9.0995 13.156 8.5275 13.008 8.0475 12.712C7.5675 12.416 7.1955 12.024 6.9315 11.536C6.6755 11.048 6.5475 10.516 6.5475 9.94C6.5475 9.388 6.6275 8.916 6.7875 8.524C6.9555 8.124 7.1755 7.804 7.4475 7.564C7.7195 7.316 8.0235 7.136 8.3595 7.024C8.7035 6.904 9.0515 6.844 9.4035 6.844C9.8035 6.844 10.1555 6.924 10.4595 7.084C10.7635 7.236 11.0195 7.432 11.2275 7.672C11.4435 7.912 11.6035 8.168 11.7075 8.44C11.8195 8.704 11.8755 8.952 11.8755 9.184C11.8755 9.248 11.8395 9.296 11.7675 9.328L8.2875 10.852ZM10.0755 9.136C10.0755 8.752 9.9835 8.436 9.7995 8.188C9.6155 7.94 9.3835 7.816 9.1035 7.816C8.7755 7.816 8.5155 7.948 8.3235 8.212C8.1315 8.468 8.0355 8.792 8.0355 9.184C8.0355 9.304 8.0395 9.452 8.0475 9.628C8.0635 9.804 8.0955 9.964 8.1435 10.108L10.0755 9.136ZM15.0873 7.936C15.1353 7.824 15.2233 7.684 15.3513 7.516C15.4793 7.34 15.6713 7.184 15.9273 7.048C16.1833 6.912 16.5153 6.844 16.9233 6.844C17.1953 6.844 17.4833 6.9 17.7873 7.012C18.0913 7.124 18.3793 7.304 18.6513 7.552C18.9233 7.8 19.1433 8.124 19.3113 8.524C19.4873 8.924 19.5753 9.416 19.5753 10C19.5753 10.736 19.4433 11.34 19.1793 11.812C18.9153 12.276 18.5713 12.616 18.1473 12.832C17.7233 13.048 17.2673 13.156 16.7793 13.156C16.1713 13.156 15.6513 12.964 15.2193 12.58V13.54C15.2193 13.86 15.2913 14.128 15.4353 14.344C15.5793 14.568 15.7993 14.68 16.0953 14.68C16.2153 14.68 16.2753 14.74 16.2753 14.86V15.22C16.2753 15.34 16.2153 15.4 16.0953 15.4H12.6633C12.5433 15.4 12.4833 15.34 12.4833 15.22V14.86C12.4833 14.74 12.5473 14.68 12.6753 14.68C12.9713 14.68 13.1873 14.568 13.3233 14.344C13.4673 14.128 13.5393 13.86 13.5393 13.54V9.412C13.5393 9.196 13.5273 8.988 13.5033 8.788C13.4793 8.588 13.4153 8.42 13.3113 8.284C13.2153 8.14 13.0553 8.056 12.8313 8.032C12.7753 8.024 12.7393 8.008 12.7233 7.984C12.7073 7.952 12.6993 7.916 12.6993 7.876V7.468C12.6993 7.364 12.7553 7.312 12.8673 7.312C13.2673 7.312 13.5953 7.296 13.8513 7.264C14.1073 7.224 14.3273 7.168 14.5113 7.096C14.7033 7.024 14.8913 6.944 15.0753 6.856C15.0993 6.84 15.1193 6.832 15.1353 6.832C15.1593 6.832 15.1753 6.832 15.1833 6.832H15.1953C15.2113 6.832 15.2193 6.844 15.2193 6.868C15.2193 6.876 15.2153 6.896 15.2073 6.928C15.2073 6.96 15.1993 7.052 15.1833 7.204C15.1673 7.348 15.1353 7.592 15.0873 7.936ZM15.2193 10.864C15.2513 11.112 15.3193 11.352 15.4233 11.584C15.5353 11.816 15.6873 12.004 15.8793 12.148C16.0713 12.292 16.2993 12.364 16.5633 12.364C16.9473 12.364 17.2473 12.268 17.4633 12.076C17.6793 11.884 17.8273 11.636 17.9073 11.332C17.9953 11.028 18.0393 10.712 18.0393 10.384C18.0393 9.616 17.8833 9.008 17.5713 8.56C17.2673 8.112 16.8673 7.888 16.3713 7.888C16.0513 7.888 15.7913 7.98 15.5913 8.164C15.3993 8.34 15.2753 8.512 15.2193 8.68V10.864ZM23.4329 12.28C23.5529 12.28 23.6129 12.34 23.6129 12.46V12.82C23.6129 12.94 23.5449 13 23.4089 13H20.0129C19.8769 13 19.8089 12.94 19.8089 12.82V12.46C19.8089 12.34 19.8689 12.28 19.9889 12.28H20.0129C20.3089 12.28 20.5249 12.172 20.6609 11.956C20.8049 11.732 20.8769 11.46 20.8769 11.14V6.64C20.8769 6.416 20.8609 6.204 20.8289 6.004C20.8049 5.804 20.7449 5.636 20.6489 5.5C20.5529 5.356 20.3929 5.272 20.1689 5.248C20.0729 5.24 20.0249 5.188 20.0249 5.092V4.684C20.0249 4.636 20.0409 4.604 20.0729 4.588C20.1049 4.572 20.1489 4.552 20.2049 4.528C20.7729 4.32 21.2249 4.128 21.5609 3.952C21.9049 3.768 22.1889 3.592 22.4129 3.424C22.4289 3.408 22.4449 3.4 22.4609 3.4H22.4969C22.5129 3.4 22.5209 3.408 22.5209 3.424V11.128C22.5209 11.448 22.5929 11.72 22.7369 11.944C22.8809 12.168 23.1009 12.28 23.3969 12.28H23.4329ZM29.9038 10.78C29.9038 11.068 29.9478 11.328 30.0358 11.56C30.1238 11.784 30.3158 11.916 30.6118 11.956C30.7078 11.964 30.7558 12.016 30.7558 12.112V12.508C30.7558 12.62 30.6958 12.676 30.5758 12.676C30.1838 12.676 29.8558 12.7 29.5918 12.748C29.3358 12.788 29.1118 12.844 28.9198 12.916C28.7358 12.98 28.5518 13.052 28.3678 13.132C28.3358 13.148 28.3078 13.156 28.2838 13.156H28.2478C28.2318 13.156 28.2238 13.14 28.2238 13.108C28.2238 13.076 28.2318 13 28.2478 12.88C28.2638 12.752 28.2798 12.612 28.2958 12.46C28.3198 12.3 28.3398 12.164 28.3558 12.052C28.3158 12.156 28.2278 12.296 28.0918 12.472C27.9638 12.648 27.7718 12.808 27.5158 12.952C27.2678 13.088 26.9398 13.156 26.5318 13.156C26.2598 13.156 25.9678 13.1 25.6558 12.988C25.3518 12.876 25.0638 12.696 24.7918 12.448C24.5198 12.2 24.2958 11.876 24.1198 11.476C23.9518 11.068 23.8678 10.572 23.8678 9.988C23.8678 9.244 23.9998 8.644 24.2638 8.188C24.5358 7.724 24.8838 7.384 25.3078 7.168C25.7398 6.952 26.1958 6.844 26.6758 6.844C27.0678 6.844 27.4278 6.904 27.7558 7.024C28.0838 7.144 28.3718 7.316 28.6198 7.54C28.8278 7.452 29.0038 7.372 29.1478 7.3C29.2998 7.22 29.4278 7.14 29.5318 7.06C29.5718 7.028 29.6118 6.996 29.6518 6.964C29.6998 6.932 29.7518 6.9 29.8078 6.868C29.8318 6.852 29.8518 6.844 29.8678 6.844H29.8798C29.8958 6.844 29.9038 6.852 29.9038 6.868V10.78ZM28.2238 8.896C28.1998 8.736 28.1398 8.56 28.0438 8.368C27.9558 8.168 27.8198 8 27.6358 7.864C27.4518 7.72 27.2038 7.648 26.8918 7.648C26.5078 7.648 26.2078 7.744 25.9918 7.936C25.7758 8.12 25.6238 8.36 25.5358 8.656C25.4558 8.952 25.4158 9.268 25.4158 9.604C25.4158 10.372 25.5678 10.98 25.8718 11.428C26.1838 11.876 26.5838 12.1 27.0718 12.1C27.3598 12.1 27.5838 12.04 27.7438 11.92C27.9118 11.792 28.0318 11.664 28.1038 11.536C28.1758 11.408 28.2158 11.332 28.2238 11.308V8.896ZM36.3203 11.38C36.3843 11.428 36.4163 11.48 36.4163 11.536C36.4163 11.552 36.4083 11.584 36.3923 11.632C36.1603 12.144 35.8163 12.528 35.3603 12.784C34.9123 13.032 34.4203 13.156 33.8843 13.156C33.4363 13.156 33.0283 13.06 32.6603 12.868C32.2923 12.668 31.9803 12.404 31.7243 12.076C31.4683 11.748 31.2803 11.38 31.1603 10.972C31.0403 10.564 30.9963 10.144 31.0283 9.712C31.0843 9.048 31.2683 8.504 31.5803 8.08C31.8923 7.656 32.2683 7.344 32.7083 7.144C33.1563 6.944 33.6043 6.844 34.0523 6.844C34.5803 6.844 35.0083 6.924 35.3363 7.084C35.6643 7.244 35.9163 7.452 36.0923 7.708C36.2683 7.964 36.3883 8.232 36.4523 8.512C36.4603 8.544 36.4643 8.572 36.4643 8.596C36.4643 8.66 36.4163 8.704 36.3203 8.728L34.9403 9.088C34.8923 9.104 34.8563 9.112 34.8323 9.112C34.7763 9.112 34.7483 9.084 34.7483 9.028C34.7483 8.996 34.7483 8.964 34.7483 8.932C34.7563 8.9 34.7603 8.856 34.7603 8.8C34.7603 8.544 34.6803 8.316 34.5203 8.116C34.3603 7.916 34.1123 7.816 33.7763 7.816C33.4723 7.816 33.2323 7.912 33.0563 8.104C32.8803 8.296 32.7523 8.544 32.6723 8.848C32.6003 9.144 32.5643 9.456 32.5643 9.784C32.5643 10.176 32.6163 10.548 32.7203 10.9C32.8243 11.252 32.9923 11.54 33.2243 11.764C33.4643 11.98 33.7883 12.088 34.1963 12.088C34.5163 12.088 34.8123 12.012 35.0843 11.86C35.3563 11.7 35.5803 11.484 35.7563 11.212C35.7883 11.156 35.8363 11.128 35.9003 11.128C35.9403 11.128 35.9763 11.14 36.0083 11.164L36.3203 11.38ZM38.7211 10.852C38.8571 11.188 39.0731 11.488 39.3691 11.752C39.6731 12.016 40.0571 12.148 40.5211 12.148C40.7771 12.148 41.0451 12.076 41.3251 11.932C41.6051 11.788 41.8491 11.564 42.0571 11.26C42.0811 11.22 42.1131 11.2 42.1531 11.2C42.1931 11.2 42.2331 11.212 42.2731 11.236C42.3211 11.26 42.4411 11.328 42.6331 11.44C42.6651 11.464 42.6811 11.496 42.6811 11.536C42.6811 11.592 42.6571 11.66 42.6091 11.74C42.3851 12.156 42.0811 12.496 41.6971 12.76C41.3131 13.024 40.8131 13.156 40.1971 13.156C39.5331 13.156 38.9611 13.008 38.4811 12.712C38.0011 12.416 37.6291 12.024 37.3651 11.536C37.1091 11.048 36.9811 10.516 36.9811 9.94C36.9811 9.388 37.0611 8.916 37.2211 8.524C37.3891 8.124 37.6091 7.804 37.8811 7.564C38.1531 7.316 38.4571 7.136 38.7931 7.024C39.1371 6.904 39.4851 6.844 39.8371 6.844C40.2371 6.844 40.5891 6.924 40.8931 7.084C41.1971 7.236 41.4531 7.432 41.6611 7.672C41.8771 7.912 42.0371 8.168 42.1411 8.44C42.2531 8.704 42.3091 8.952 42.3091 9.184C42.3091 9.248 42.2731 9.296 42.2011 9.328L38.7211 10.852ZM40.5091 9.136C40.5091 8.752 40.4171 8.436 40.2331 8.188C40.0491 7.94 39.8171 7.816 39.5371 7.816C39.2091 7.816 38.9491 7.948 38.7571 8.212C38.5651 8.468 38.4691 8.792 38.4691 9.184C38.4691 9.304 38.4731 9.452 38.4811 9.628C38.4971 9.804 38.5291 9.964 38.5771 10.108L40.5091 9.136Z" fill="black"/>
<line x1="44.5" y1="3" x2="44.5" y2="16" stroke="black"/>
</svg>
