<?xml version="1.0" standalone="no"?>
<!DOCTYPE svg PUBLIC "-//W3C//DTD SVG 20010904//EN"
 "http://www.w3.org/TR/2001/REC-SVG-20010904/DTD/svg10.dtd">
<svg version="1.0" xmlns="http://www.w3.org/2000/svg"
 width="1088.000000pt" height="1088.000000pt" viewBox="0 0 1088.000000 1088.000000"
 preserveAspectRatio="xMidYMid meet">
<metadata>
Created by potrace 1.14, written by Peter Selinger 2001-2017
</metadata>
<g transform="translate(0.000000,1088.000000) scale(0.100000,-0.100000)"
fill="#000000" stroke="none">
<path d="M7689 8959 c-11 -6 -16 -99 -7 -114 3 -6 2 -19 -2 -30 -4 -11 -4 -32
1 -47 4 -16 5 -28 1 -28 -8 0 -8 -62 0 -76 3 -5 2 -18 -2 -29 -4 -11 -4 -32 1
-47 4 -16 5 -28 1 -28 -6 0 -7 -65 -2 -80 2 -3 1 -9 0 -15 -1 -5 -2 -32 -2
-60 0 -27 1 -54 2 -60 1 -5 1 -14 0 -20 -1 -5 -1 -41 -1 -80 1 -38 1 -76 1
-82 0 -16 0 -219 0 -235 0 -7 0 -58 -1 -113 0 -55 0 -104 1 -110 1 -5 1 -14 0
-20 -1 -5 -2 -57 -1 -115 2 -135 2 -120 0 -235 0 -55 0 -104 1 -110 1 -5 1
-14 0 -20 -1 -5 -2 -57 -1 -115 2 -135 2 -120 0 -235 0 -55 0 -104 1 -110 1
-5 1 -14 0 -20 -1 -5 -2 -57 -1 -115 2 -135 2 -120 0 -235 0 -55 0 -104 1
-110 1 -5 1 -14 0 -20 -1 -5 -2 -57 -1 -115 1 -58 1 -114 1 -125 0 -11 0 -33
1 -50 1 -16 1 -37 0 -45 -1 -8 -1 -40 -1 -70 1 -30 1 -59 1 -65 0 -5 -1 -39
-2 -75 -1 -36 0 -69 1 -75 1 -5 1 -13 0 -17 -1 -5 -2 -24 -2 -43 0 -19 1 -38
2 -42 1 -5 1 -12 0 -18 -5 -22 -2 -124 5 -134 3 -6 3 -11 -2 -11 -7 0 -9 -64
-3 -80 2 -3 1 -9 0 -15 -1 -5 -2 -32 -2 -60 0 -27 1 -54 2 -60 1 -5 1 -13 0
-17 -1 -5 -2 -24 -2 -43 0 -19 1 -38 2 -42 1 -5 1 -12 0 -18 -5 -22 -2 -124 5
-134 3 -6 3 -11 -2 -11 -7 0 -9 -64 -3 -80 2 -3 1 -9 0 -15 -1 -5 -2 -32 -2
-60 0 -27 1 -54 2 -60 1 -5 1 -13 0 -17 -1 -5 -2 -24 -2 -43 0 -19 1 -38 2
-42 1 -5 1 -12 0 -18 -5 -22 -2 -124 5 -134 3 -6 3 -11 -2 -11 -7 0 -9 -64 -3
-80 2 -3 1 -9 0 -15 -1 -5 -2 -32 -2 -60 0 -27 1 -54 2 -60 1 -5 1 -13 0 -17
-1 -5 -2 -24 -2 -43 0 -19 1 -38 2 -42 1 -5 1 -12 0 -18 -5 -22 -2 -124 5
-134 3 -6 3 -11 -2 -11 -7 0 -9 -64 -3 -80 2 -3 1 -9 0 -15 -1 -5 -2 -32 -2
-60 0 -27 1 -54 2 -60 1 -5 1 -13 0 -17 -1 -5 -2 -24 -2 -43 0 -19 1 -38 2
-42 1 -5 1 -12 0 -18 -5 -22 -2 -124 5 -134 3 -6 3 -11 -2 -11 -7 0 -9 -64 -3
-80 2 -3 1 -9 0 -15 -1 -5 -2 -32 -2 -60 0 -27 1 -54 2 -60 1 -5 1 -14 0 -20
-1 -5 -1 -41 -1 -80 1 -38 1 -76 1 -82 0 -16 0 -219 0 -235 0 -7 0 -58 -1
-113 0 -55 0 -104 1 -110 1 -5 1 -14 0 -20 -1 -5 -2 -57 -1 -115 2 -135 2
-120 0 -235 0 -55 0 -104 1 -110 1 -5 1 -14 0 -20 -1 -5 -2 -57 -1 -115 2
-135 2 -120 0 -235 0 -55 0 -104 1 -110 1 -5 1 -14 0 -20 -1 -5 -2 -57 -1
-115 2 -135 2 -120 0 -235 0 -55 0 -104 1 -110 1 -5 1 -14 0 -20 -5 -23 -2
-223 3 -232 3 -5 2 -15 -2 -22 -5 -7 -5 -28 -1 -47 4 -19 5 -34 1 -34 -3 0 -5
-19 -4 -42 1 -24 2 -58 2 -77 1 -30 3 -33 25 -27 14 3 27 2 31 -3 3 -6 17 -6
34 -1 15 4 34 4 41 0 7 -5 23 -5 34 0 12 4 30 4 42 0 11 -5 27 -4 34 0 7 5 23
5 34 0 12 -4 30 -4 41 0 11 4 31 4 45 0 14 -4 34 -4 45 0 11 4 29 4 41 0 11
-5 27 -5 34 0 7 5 23 5 34 0 12 -4 30 -4 41 0 11 4 29 4 41 0 11 -5 26 -5 32
-1 9 5 11 1002 10 4161 l-3 4154 -26 7 c-15 3 -32 3 -39 -1 -7 -4 -24 -4 -39
0 -14 4 -36 4 -48 -1 -12 -4 -25 -4 -28 1 -3 5 -18 5 -35 0 -17 -5 -30 -6 -30
-2 0 4 -16 7 -35 7 -19 0 -35 -3 -35 -7 0 -4 -12 -3 -27 1 -16 5 -37 5 -48 1
-11 -4 -24 -5 -29 -2 -12 7 -196 8 -207 1z"/>
<path d="M4417 6601 c-29 -19 -72 -46 -97 -60 -58 -31 -338 -171 -343 -171 -2
0 -35 -14 -73 -32 -38 -17 -71 -32 -74 -33 -3 -1 -18 -7 -35 -14 -38 -15 -188
-70 -210 -77 -73 -23 -290 -84 -312 -88 -15 -3 -46 -10 -68 -15 -22 -5 -58
-13 -80 -16 -22 -4 -49 -9 -60 -11 -11 -2 -38 -6 -60 -9 -74 -11 -141 -34
-161 -56 -17 -19 -19 -37 -19 -193 0 -158 2 -173 20 -193 11 -12 34 -24 50
-27 110 -20 134 -27 183 -48 25 -11 52 -26 59 -32 62 -51 118 -131 151 -216
28 -74 35 -103 48 -195 1 -11 3 -20 4 -20 1 0 8 -55 16 -145 10 -99 9 -1308 0
-1365 -5 -27 -9 -57 -10 -65 -1 -9 -5 -20 -8 -25 -3 -6 -9 -27 -12 -49 -4 -21
-11 -46 -16 -55 -4 -9 -25 -51 -46 -95 -49 -100 -128 -183 -215 -224 -70 -32
-99 -39 -198 -48 -112 -9 -124 -12 -149 -38 -25 -24 -25 -29 -27 -178 -2 -158
4 -195 34 -222 17 -16 141 -39 141 -26 0 4 20 4 45 0 24 -4 50 -3 57 1 6 4 16
5 20 3 5 -3 29 -5 53 -4 25 0 53 1 63 1 113 -2 174 -1 182 4 6 3 10 2 10 -3 0
-5 17 -6 40 -2 22 4 40 4 40 0 0 -4 18 -4 40 0 22 4 40 4 40 0 0 -4 18 -4 40
0 22 4 40 4 40 0 0 -4 18 -4 40 0 22 4 40 4 40 0 0 -4 18 -4 40 0 22 4 40 4
40 0 0 -4 18 -4 40 0 23 4 40 3 40 -2 0 -5 4 -7 9 -3 9 5 140 9 166 5 8 -1 48
-1 120 1 6 0 28 0 50 0 22 0 47 0 55 0 8 0 38 -1 67 -1 28 -1 56 0 60 3 5 3
15 2 21 -2 7 -4 33 -5 57 -1 25 4 47 5 50 2 4 -4 56 -4 120 -1 6 0 28 0 50 0
22 -1 49 -1 60 -1 11 0 42 0 68 0 27 0 53 2 58 5 5 4 9 3 9 -2 0 -4 23 -8 50
-8 28 0 50 3 50 6 0 3 20 3 45 -1 25 -4 45 -4 45 -1 0 3 26 6 58 5 98 -1 112
26 113 223 0 222 -3 226 -176 238 -63 4 -101 9 -115 16 -3 1 -9 3 -15 4 -5 2
-13 4 -17 5 -5 1 -11 3 -15 4 -29 5 -126 72 -166 115 -40 42 -123 183 -131
224 -2 7 -5 19 -9 27 -5 14 -16 60 -34 135 -4 17 -9 387 -10 823 l-4 793 35
73 c105 218 295 426 479 525 31 17 57 28 57 25 0 -4 6 -2 13 4 6 6 15 11 20
11 4 1 8 1 10 2 24 7 57 11 129 16 75 5 97 2 153 -18 110 -39 198 -138 221
-249 21 -104 -4 -414 -37 -456 -5 -6 -10 -19 -12 -30 -2 -10 -7 -26 -10 -34
-18 -44 -16 -87 5 -110 18 -20 27 -21 72 -15 28 3 53 9 56 13 3 4 10 8 15 9
20 5 130 47 135 53 3 3 10 6 15 7 19 4 390 154 417 168 14 8 32 15 38 15 24 0
155 69 185 97 52 50 83 112 87 178 1 17 4 35 7 40 7 14 10 60 11 195 1 141 -5
190 -38 300 -14 48 -28 78 -76 165 -18 32 -138 150 -186 182 -115 77 -243 126
-395 151 -86 14 -369 6 -435 -13 -8 -2 -26 -6 -40 -9 -87 -16 -226 -68 -345
-127 -79 -40 -94 -49 -172 -101 -104 -69 -262 -217 -323 -304 -72 -102 -146
-217 -166 -261 -26 -59 -37 -67 -29 -25 2 15 7 45 11 67 3 22 15 85 26 140 10
55 21 111 24 125 2 14 9 48 14 75 5 28 12 65 15 83 3 17 7 46 10 62 3 17 7 45
10 63 3 17 7 43 10 57 8 42 16 93 20 125 2 17 11 63 20 103 8 41 13 78 10 82
-10 16 -47 5 -98 -29z"/>
</g>
</svg>
